<?xml version="1.0" standalone="no"?>
<!DOCTYPE svg PUBLIC "-//W3C//DTD SVG 20010904//EN"
 "http://www.w3.org/TR/2001/REC-SVG-20010904/DTD/svg10.dtd">
<svg version="1.0" xmlns="http://www.w3.org/2000/svg"
 width="260.000000pt" height="260.000000pt" viewBox="0 0 260.000000 260.000000"
 preserveAspectRatio="xMidYMid meet">
<metadata>
Created by potrace 1.14, written by Peter Selinger 2001-2017
</metadata>
<g transform="translate(0.000000,260.000000) scale(0.100000,-0.100000)"
fill="#000000" stroke="none">
<path d="M1170 2205 c0 -23 -5 -35 -13 -35 -8 0 -18 -10 -24 -22 -8 -18 -19
-23 -49 -24 -21 -1 -45 -2 -51 -3 -7 -1 -13 -10 -13 -20 0 -14 -5 -18 -20 -14
-15 4 -20 0 -20 -15 0 -17 -7 -21 -37 -24 -31 -2 -39 -7 -41 -25 -2 -14 -10
-23 -21 -23 -13 0 -17 -7 -16 -27 2 -38 -5 -55 -21 -49 -8 3 -15 0 -15 -7 -1
-7 -3 -19 -4 -27 -1 -8 -3 -22 -4 -31 0 -9 -10 -19 -21 -22 -17 -4 -20 -11
-15 -35 4 -26 2 -31 -17 -34 -22 -3 -22 -3 -21 -231 1 -209 0 -228 -16 -237
-10 -5 -21 -6 -25 -3 -3 3 -6 -3 -6 -15 0 -15 -6 -22 -20 -22 -13 0 -20 -7
-20 -20 0 -16 -7 -20 -30 -20 -18 0 -29 -5 -27 -12 1 -7 -8 -17 -20 -23 -13
-5 -23 -15 -23 -22 0 -12 -26 -18 -57 -14 -7 1 -13 -7 -13 -18 0 -14 -9 -23
-25 -27 -14 -3 -23 -10 -20 -14 6 -10 -20 -32 -28 -23 -4 3 -7 -3 -7 -15 0
-21 5 -22 75 -22 60 0 76 3 84 18 8 14 25 17 88 18 43 1 88 4 101 7 21 6 26
-1 23 -28 0 -6 9 -15 22 -20 18 -8 22 -17 20 -46 -2 -31 1 -36 19 -35 18 1 22
-5 23 -37 2 -33 0 -37 -22 -37 -15 0 -23 -5 -21 -14 3 -15 -39 -59 -66 -69 -9
-4 -13 -13 -10 -22 5 -11 -1 -15 -20 -15 -24 0 -26 -4 -26 -40 0 -22 -3 -39
-7 -39 -29 5 -34 -3 -32 -48 3 -87 0 -101 -18 -99 -16 1 -18 -9 -18 -77 0 -56
-3 -77 -13 -77 -14 0 -30 -35 -28 -64 1 -20 7 -21 383 -21 349 0 383 1 383 16
0 9 7 20 16 23 23 9 24 8 24 -13 0 -10 6 -21 13 -23 6 -3 165 -4 352 -4 l340
1 0 120 c0 108 -2 120 -17 119 -16 -2 -18 8 -18 71 0 64 -2 73 -20 78 -15 4
-20 14 -20 41 0 29 -4 36 -20 36 -13 0 -20 7 -20 20 0 13 -7 20 -20 20 -11 0
-19 5 -17 12 1 6 -8 17 -21 23 -13 7 -23 15 -23 19 3 21 -1 26 -19 26 -13 0
-20 7 -20 20 0 13 -7 20 -19 20 -12 0 -18 7 -17 17 0 10 -6 18 -14 18 -8 0
-16 10 -18 23 -2 12 -10 22 -18 22 -8 0 -14 9 -14 20 0 13 7 20 19 20 16 0 19
7 18 37 -2 28 2 38 13 38 8 0 16 10 18 23 2 16 8 22 18 18 8 -3 15 -1 15 4 1
6 2 16 3 23 0 6 10 12 21 12 18 0 20 8 23 80 3 93 -3 125 -23 125 -18 0 -17
-16 -17 203 0 167 -1 177 -19 177 -12 0 -19 7 -19 20 0 13 -7 20 -20 20 -13 0
-18 5 -13 16 4 10 -1 17 -15 21 -13 3 -19 10 -15 19 5 12 -7 19 -29 15 -5 0
-8 10 -8 24 0 14 -3 24 -7 23 -11 -3 -58 43 -66 65 -4 9 -10 17 -14 16 -17 -3
-33 1 -32 9 3 20 -2 32 -16 32 -8 0 -15 8 -15 18 0 14 -9 18 -47 19 -72 2 -73
2 -73 18 0 8 -7 15 -15 15 -13 0 -20 19 -16 44 1 4 -1 17 -4 28 -5 15 -10 17
-21 7 -7 -6 -11 -15 -8 -20 3 -5 2 -9 -3 -10 -63 -7 -72 -5 -83 19 -10 24 -25
23 -25 -1 0 -7 -19 -13 -43 -15 -40 -3 -43 -1 -42 20 4 39 1 48 -15 48 -10 0
-15 -11 -15 -35z m-306 -889 c-7 -18 -32 -28 -39 -16 -3 5 -12 7 -20 3 -9 -3
-15 1 -15 11 0 12 10 16 40 16 30 0 38 -3 34 -14z m-44 -151 c0 -14 22 -20 63
-16 11 2 17 -5 17 -18 0 -20 -5 -21 -115 -21 -92 0 -115 3 -115 14 0 19 21 25
64 21 28 -2 39 2 47 16 12 23 39 25 39 4z m607 -490 c0 -27 -4 -35 -19 -35
-13 0 -18 8 -18 28 0 31 7 42 25 42 7 0 12 -15 12 -35z m0 -129 c0 -8 -9 -17
-19 -19 -17 -5 -25 13 -11 26 11 12 30 7 30 -7z m0 -90 c-4 -9 -13 -13 -22
-10 -18 7 -20 31 -2 37 17 6 31 -9 24 -27z m-411 -33 c-4 -24 -36 -26 -36 -2
0 12 7 19 19 19 12 0 18 -6 17 -17z m34 -72 c0 -10 -7 -21 -15 -25 -11 -4 -15
1 -15 19 0 16 6 25 15 25 8 0 15 -9 15 -19z"/>
</g>
</svg>
